<svg xmlns="http://www.w3.org/2000/svg" version="1.1" xmlns:xlink="http://www.w3.org/1999/xlink" xmlns:svgjs="http://svgjs.dev/svgjs" width="1000" height="232" viewBox="0 0 1000 232"><g transform="matrix(1,0,0,1,-0.6060596937323908,0.30473148155847696)"><svg viewBox="0 0 396 92" data-background-color="#ffffff" preserveAspectRatio="xMidYMid meet" height="232" width="1000" xmlns="http://www.w3.org/2000/svg" xmlns:xlink="http://www.w3.org/1999/xlink"><g id="tight-bounds" transform="matrix(1,0,0,1,0.2399996387180181,-0.12084179441112042)"><svg viewBox="0 0 395.52 92.24167447580388" height="92.24167447580388" width="395.52"><g><svg viewBox="0 0 534.0095285908795 124.5396771421354" height="92.24167447580388" width="395.52"><g transform="matrix(1,0,0,1,138.48952859087956,17.212068259151856)"><svg viewBox="0 0 395.52 90.11554062383169" height="90.11554062383169" width="395.52"><g id="textblocktransform"><svg viewBox="0 0 395.52 90.11554062383169" height="90.11554062383169" width="395.52" id="textblock"><g><svg viewBox="0 0 395.52 59.09051088947688" height="59.09051088947688" width="395.52"><g transform="matrix(1,0,0,1,0,0)"><svg width="395.52" viewBox="0.05000000447034836 -35.900001525878906 245.63999938964844 36.70000076293945" height="59.09051088947688" data-palette-color="#096a2e"><path d="M10.3 0L0.05 0 0.05-2.85Q1.45-2.85 2.3-3.65 3.15-4.45 3.7-5.78 4.25-7.1 4.85-8.75L4.85-8.75 14.8-35.9 17.5-35.9 28.35-8.25Q28.65-7.4 29.15-5.85 29.65-4.3 29.7-3.15L29.7-3.15Q30.55-3.2 31.35-3.25 32.15-3.3 32.75-3.3L32.75-3.3 32.75 0 20 0 20-2.75Q21.55-2.75 22.1-3.4 22.65-4.05 22.58-5.1 22.5-6.15 22.05-7.25L22.05-7.25 20.8-10.65 9.2-10.45 8.1-7.1Q7.8-6.25 7.4-5.18 7-4.1 6.6-3.25L6.6-3.25Q7.5-3.3 8.58-3.35 9.65-3.4 10.3-3.4L10.3-3.4 10.3 0ZM13-21.35L10.3-13.65 19.7-13.65 17-21Q16.4-22.7 15.88-24.43 15.35-26.15 15-27.6L15-27.6 14.9-27.6Q14.6-26.6 14.18-25 13.75-23.4 13-21.35L13-21.35ZM45.8-35L45.8-32.25Q44.5-32.2 43.72-31.8 42.95-31.4 42.62-30.53 42.3-29.65 42.3-28.05L42.3-28.05 42.3-14.65Q42.3-11.65 42.87-9.43 43.45-7.2 44.55-5.7 45.65-4.2 47.27-3.45 48.9-2.7 51.05-2.7L51.05-2.7Q54.05-2.6 56.12-3.95 58.2-5.3 59.25-7.9 60.3-10.5 60.3-14.25L60.3-14.25 60.35-27.65Q60.35-28.9 60.4-30.05 60.45-31.2 60.55-31.85L60.55-31.85Q59.7-31.8 58.6-31.78 57.5-31.75 56.85-31.7L56.85-31.7 56.85-35 67.65-35 67.65-32.25Q66.3-32.2 65.52-31.78 64.75-31.35 64.45-30.3 64.15-29.25 64.15-27.3L64.15-27.3 64.1-15.1Q64.1-11.15 63.17-8.18 62.25-5.2 60.45-3.2 58.65-1.2 56.1-0.2 53.55 0.8 50.3 0.8L50.3 0.8Q46.15 0.8 43.37-0.35 40.6-1.5 38.97-3.68 37.35-5.85 36.67-8.83 36-11.8 36-15.5L36-15.5 36-26.95Q36-28.25 36.07-29.68 36.15-31.1 36.2-31.85L36.2-31.85Q35.35-31.8 34.25-31.78 33.15-31.75 32.5-31.7L32.5-31.7 32.5-35 45.8-35ZM100.35-23.95L97.5-23.95Q97.5-26.75 96.8-28.58 96.1-30.4 94.72-31.3 93.35-32.2 91.25-32.15L91.25-32.15 88.2-32.15 88.2-7.45Q88.2-6.1 88.15-4.95 88.1-3.8 88-3.15L88-3.15Q88.95-3.2 90.17-3.25 91.4-3.3 92.05-3.3L92.05-3.3 92.05 0 78.4 0 78.4-2.75Q79.8-2.8 80.55-3.25 81.3-3.7 81.6-4.75 81.9-5.8 81.9-7.7L81.9-7.7 81.95-32.1 78.7-32.1Q75.75-32.05 74.2-30.1 72.65-28.15 72.65-23.95L72.65-23.95 69.85-23.95 70.1-35 100.05-35 100.35-23.95ZM120.74 0.8L120.74 0.8Q115.99 0.8 112.64-0.8 109.29-2.4 107.22-5.08 105.14-7.75 104.19-11 103.24-14.25 103.24-17.5L103.24-17.5Q103.24-20.65 104.29-23.88 105.34-27.1 107.52-29.8 109.69-32.5 112.99-34.15 116.29-35.8 120.74-35.8L120.74-35.8Q125.29-35.8 128.62-34.15 131.94-32.5 134.07-29.78 136.19-27.05 137.22-23.85 138.24-20.65 138.24-17.5L138.24-17.5Q138.24-14.4 137.19-11.2 136.14-8 133.97-5.28 131.79-2.55 128.49-0.88 125.19 0.8 120.74 0.8ZM121.14-2.3L121.14-2.3Q123.94-2.3 125.87-3.6 127.79-4.9 128.99-7 130.19-9.1 130.77-11.63 131.34-14.15 131.34-16.6L131.34-16.6Q131.34-19.95 130.64-22.88 129.94-25.8 128.57-28 127.19-30.2 125.09-31.48 122.99-32.75 120.24-32.7L120.24-32.7Q117.49-32.65 115.57-31.33 113.64-30 112.42-27.88 111.19-25.75 110.64-23.2 110.09-20.65 110.09-18.2L110.09-18.2Q110.09-15.7 110.69-12.95 111.29-10.2 112.59-7.75 113.89-5.3 116.02-3.8 118.14-2.3 121.14-2.3ZM159.14 0.8L159.14 0.8Q153.84 0.8 150.04-1.48 146.24-3.75 144.19-7.78 142.14-11.8 142.14-16.9L142.14-16.9Q142.14-20.35 143.22-23.73 144.29-27.1 146.44-29.83 148.59-32.55 151.87-34.18 155.14-35.8 159.49-35.8L159.49-35.8Q160.99-35.8 162.74-35.5 164.49-35.2 166.22-34.63 167.94-34.05 169.29-33.25L169.29-33.25 169.09-35.45 172.59-35.45 172.59-23.85 169.84-23.85Q169.44-26.8 168.09-28.75 166.74-30.7 164.67-31.73 162.59-32.75 160.04-32.75L160.04-32.75Q157.44-32.75 155.37-31.55 153.29-30.35 151.87-28.3 150.44-26.25 149.69-23.6 148.94-20.95 148.94-17.95L148.94-17.95Q148.94-13.55 150.32-10.08 151.69-6.6 154.24-4.63 156.79-2.65 160.39-2.65L160.39-2.65Q161.49-2.65 162.84-2.83 164.19-3 165.54-3.4 166.89-3.8 167.94-4.35L167.94-4.35 167.94-9.5Q167.94-10.8 167.99-12.05 168.04-13.3 168.09-14.1L168.09-14.1Q167.24-14.05 166.14-14.03 165.04-14 164.39-13.95L164.39-13.95 164.39-17.25 177.04-17.25 177.04-14.5Q175.99-14.45 175.34-14.13 174.69-13.8 174.29-13.18 173.89-12.55 173.74-11.65 173.59-10.75 173.59-9.6L173.59-9.6 173.59-1.75 172.34-1.75Q171.14-1.75 169.69-1.38 168.24-1 166.54-0.45L166.54-0.45Q164.99 0.05 163.09 0.43 161.19 0.8 159.14 0.8ZM200.39-12.35L197.64-12.35Q197.64-14.5 197.01-15.43 196.39-16.35 195.21-16.57 194.04-16.8 192.39-16.75L192.39-16.75 190.34-16.65 190.34-7.4Q190.34-6.05 190.29-4.93 190.24-3.8 190.14-3.15L190.14-3.15 197.79-3.2Q199.54-3.2 200.99-3.88 202.44-4.55 203.34-6.18 204.24-7.8 204.24-10.6L204.24-10.6 206.99-10.6 206.74 0 180.54 0 180.54-2.75Q181.94-2.8 182.69-3.23 183.44-3.65 183.74-4.73 184.04-5.8 184.04-7.7L184.04-7.7 184.04-27.65Q184.04-28.9 184.11-30.05 184.19-31.2 184.24-31.85L184.24-31.85Q183.39-31.8 182.29-31.78 181.19-31.75 180.54-31.7L180.54-31.7 180.54-35 205.19-35 205.49-25.6 202.74-25.6Q202.74-28.45 201.81-29.88 200.89-31.3 199.44-31.8 197.99-32.3 196.44-32.25L196.44-32.25 193.84-32.2Q192.49-32.15 191.74-31.75 190.99-31.35 190.66-30.33 190.34-29.3 190.34-27.3L190.34-27.3 190.34-19.65 197.34-19.6 197.09-23.95 200.39-23.95 200.39-12.35ZM242.14 0.6L238.54 0.6 221.19-21.95Q220.64-22.75 220.01-23.58 219.39-24.4 218.79-25.25L218.79-25.25 218.74-25.25 218.84-7.8Q218.84-6.45 218.81-5.2 218.79-3.95 218.69-3.15L218.69-3.15Q219.54-3.2 220.64-3.25 221.74-3.3 222.39-3.3L222.39-3.3 222.39 0 211.74 0 211.74-2.75Q213.04-2.8 213.76-3.18 214.49-3.55 214.84-4.48 215.19-5.4 215.19-6.95L215.19-6.95 215.14-27.75Q215.14-28.95 215.19-30.05 215.24-31.15 215.29-31.85L215.29-31.85Q214.49-31.8 213.39-31.78 212.29-31.75 211.64-31.7L211.64-31.7 211.64-35 218.84-35 235.29-13.75Q236.34-12.4 237.11-11.35 237.89-10.3 238.49-9.45L238.49-9.45 238.54-9.45 238.54-27.65Q238.54-28.9 238.59-30.05 238.64-31.2 238.69-31.85L238.69-31.85Q237.89-31.8 236.79-31.78 235.69-31.75 234.99-31.7L234.99-31.7 234.99-35 245.69-35 245.69-32.25Q244.34-32.2 243.56-31.78 242.79-31.35 242.49-30.3 242.19-29.25 242.19-27.3L242.19-27.3 242.14 0.6Z" opacity="1" transform="matrix(1,0,0,1,0,0)" fill="#096a2e" class="wordmark-text-0" data-fill-palette-color="primary" id="text-0"></path></svg></g></svg></g><g transform="matrix(1,0,0,1,0,73.04036233822103)"><svg viewBox="0 0 232.209792 17.075178285610665" height="17.075178285610665" width="232.209792"><g transform="matrix(1,0,0,1,0,0)"><svg width="232.209792" viewBox="5.400000095367432 -35.29999923706055 551.4099731445312 40.54999923706055" height="17.075178285610665" data-palette-color="#096a2e"><path d="M20-35.3Q26.8-35.3 30.73-31.33 34.65-27.35 34.65-19.85L34.65-19.85 34.65 0 31 0 31-10.3 9-10.3 9 0 5.4 0 5.4-19.85Q5.4-27.35 9.33-31.33 13.25-35.3 20-35.3L20-35.3ZM9-13.5L31-13.5 31-20.2Q31-26.05 28.1-29.03 25.2-32 20-32L20-32Q14.8-32 11.9-29.03 9-26.05 9-20.2L9-20.2 9-13.5ZM61.15-35.3Q67.45-35.3 71.02-31.55 74.6-27.8 74.6-20.85L74.6-20.85 74.6 0 70.9 0 70.9-20.75Q70.9-26.3 68.15-29.15 65.4-32 60.45-32L60.45-32Q55.25-32 52.35-28.98 49.45-25.95 49.45-19.9L49.45-19.9 49.45 0 45.75 0 45.75-35 49.3-35 49.3-29.1Q52.65-35.3 61.15-35.3L61.15-35.3ZM100-35.3Q106.8-35.3 110.72-31.33 114.65-27.35 114.65-19.85L114.65-19.85 114.65 0 111 0 111-10.3 89-10.3 89 0 85.4 0 85.4-19.85Q85.4-27.35 89.32-31.33 93.25-35.3 100-35.3L100-35.3ZM89-13.5L111-13.5 111-20.2Q111-26.05 108.09-29.03 105.2-32 100-32L100-32Q94.8-32 91.9-29.03 89-26.05 89-20.2L89-20.2 89-13.5ZM125.74 0L125.74-35 129.44-35 129.44-3.2 149.04-3.2 149.04 0 125.74 0ZM178.39-35L182.09-35 182.09-10.15Q182.09-2.65 178.19 1.3 174.29 5.25 167.39 5.25L167.39 5.25Q163.09 5.25 159.66 3.88 156.24 2.5 153.94-0.1L153.94-0.1 155.64-2.95Q160.09 1.95 167.39 1.95L167.39 1.95Q172.79 1.95 175.59-1.05 178.39-4.05 178.39-10.05L178.39-10.05 178.39-14.75Q174.99-8.8 167.04-8.8L167.04-8.8Q160.54-8.8 156.89-12.53 153.24-16.25 153.24-23.25L153.24-23.25 153.24-35 156.94-35 156.94-23.4Q156.94-17.85 159.69-14.98 162.44-12.1 167.39-12.1L167.39-12.1Q172.59-12.1 175.49-15.13 178.39-18.15 178.39-24.2L178.39-24.2 178.39-35ZM216.64-31.45L215.29-28.55Q210.14-31.55 203.89-32L203.89-32 203.89 0 200.19 0 200.19-32Q194.04-31.6 188.74-28.55L188.74-28.55 187.39-31.45Q193.89-35.3 201.99-35.3L201.99-35.3Q210.24-35.3 216.64-31.45L216.64-31.45ZM236.59-31.8L229.49-31.8 229.49-3.2 236.59-3.2 236.59 0 218.74 0 218.74-3.2 225.84-3.2 225.84-31.8 218.74-31.8 218.74-35 236.59-35 236.59-31.8ZM259.43 0.3Q254.23 0.3 250.06-2 245.88-4.3 243.51-8.38 241.13-12.45 241.13-17.5L241.13-17.5Q241.13-22.55 243.51-26.63 245.88-30.7 250.08-33 254.28-35.3 259.48-35.3L259.48-35.3Q263.38-35.3 266.68-34 269.98-32.7 272.28-30.2L272.28-30.2 269.93-27.85Q265.83-32 259.58-32L259.58-32Q255.43-32 252.03-30.1 248.63-28.2 246.71-24.9 244.78-21.6 244.78-17.5L244.78-17.5Q244.78-13.4 246.71-10.1 248.63-6.8 252.03-4.9 255.43-3 259.58-3L259.58-3Q265.88-3 269.93-7.2L269.93-7.2 272.28-4.85Q269.98-2.35 266.66-1.03 263.33 0.3 259.43 0.3L259.43 0.3ZM293.28 0L293.28-35 307.53-35Q313.08-35 317.33-32.77 321.58-30.55 323.93-26.58 326.28-22.6 326.28-17.5L326.28-17.5Q326.28-12.4 323.93-8.43 321.58-4.45 317.33-2.23 313.08 0 307.53 0L307.53 0 293.28 0ZM296.98-3.2L307.33-3.2Q311.93-3.2 315.38-5.03 318.83-6.85 320.73-10.08 322.63-13.3 322.63-17.5L322.63-17.5Q322.63-21.7 320.73-24.93 318.83-28.15 315.38-29.98 311.93-31.8 307.33-31.8L307.33-31.8 296.98-31.8 296.98-3.2ZM348.88-35.3Q355.68-35.3 359.6-31.33 363.53-27.35 363.53-19.85L363.53-19.85 363.53 0 359.88 0 359.88-10.3 337.88-10.3 337.88 0 334.28 0 334.28-19.85Q334.28-27.35 338.2-31.33 342.13-35.3 348.88-35.3L348.88-35.3ZM337.88-13.5L359.88-13.5 359.88-20.2Q359.88-26.05 356.98-29.03 354.08-32 348.88-32L348.88-32Q343.68-32 340.78-29.03 337.88-26.05 337.88-20.2L337.88-20.2 337.88-13.5ZM397.57-31.45L396.22-28.55Q391.07-31.55 384.82-32L384.82-32 384.82 0 381.12 0 381.12-32Q374.97-31.6 369.67-28.55L369.67-28.55 368.32-31.45Q374.82-35.3 382.92-35.3L382.92-35.3Q391.17-35.3 397.57-31.45L397.57-31.45ZM416.97-35.3Q423.77-35.3 427.7-31.33 431.62-27.35 431.62-19.85L431.62-19.85 431.62 0 427.97 0 427.97-10.3 405.97-10.3 405.97 0 402.37 0 402.37-19.85Q402.37-27.35 406.3-31.33 410.22-35.3 416.97-35.3L416.97-35.3ZM405.97-13.5L427.97-13.5 427.97-20.2Q427.97-26.05 425.07-29.03 422.17-32 416.97-32L416.97-32Q411.77-32 408.87-29.03 405.97-26.05 405.97-20.2L405.97-20.2 405.97-13.5ZM452.37 0.3Q448.47 0.3 444.89-0.95 441.32-2.2 439.37-4.25L439.37-4.25 440.82-7.1Q442.72-5.2 445.87-4.03 449.02-2.85 452.37-2.85L452.37-2.85Q457.07-2.85 459.42-4.58 461.77-6.3 461.77-9.05L461.77-9.05Q461.77-11.15 460.49-12.4 459.22-13.65 457.37-14.33 455.52-15 452.22-15.8L452.22-15.8Q448.27-16.8 445.92-17.73 443.57-18.65 441.89-20.55 440.22-22.45 440.22-25.7L440.22-25.7Q440.22-28.35 441.62-30.53 443.02-32.7 445.92-34 448.82-35.3 453.12-35.3L453.12-35.3Q456.12-35.3 458.99-34.48 461.87-33.65 463.97-32.2L463.97-32.2 462.72-29.25Q460.52-30.7 458.02-31.43 455.52-32.15 453.12-32.15L453.12-32.15Q448.52-32.15 446.19-30.38 443.87-28.6 443.87-25.8L443.87-25.8Q443.87-23.7 445.14-22.43 446.42-21.15 448.34-20.48 450.27-19.8 453.52-19L453.52-19Q457.37-18.05 459.74-17.13 462.12-16.2 463.77-14.33 465.42-12.45 465.42-9.25L465.42-9.25Q465.42-6.6 463.99-4.42 462.57-2.25 459.62-0.98 456.67 0.3 452.37 0.3L452.37 0.3ZM497.07-6.8L498.47-4Q496.32-1.95 492.74-0.83 489.17 0.3 484.82 0.3L484.82 0.3Q480.22 0.3 476.99-0.95 473.77-2.2 472.14-4.4 470.52-6.6 470.52-9.45L470.52-9.45Q470.52-12.6 472.39-14.8 474.27-17 477.32-17.85L477.32-17.85Q474.82-18.8 473.42-20.88 472.02-22.95 472.02-25.75L472.02-25.75Q472.02-28.4 473.54-30.58 475.07-32.75 478.14-34.02 481.22-35.3 485.57-35.3L485.57-35.3Q488.77-35.3 491.79-34.58 494.82-33.85 496.97-32.5L496.97-32.5 495.82-29.55Q491.22-32.15 485.72-32.15L485.72-32.15Q480.87-32.15 478.29-30.3 475.72-28.45 475.72-25.5L475.72-25.5Q475.72-22.55 477.79-20.95 479.87-19.35 483.67-19.35L483.67-19.35 492.37-19.35 492.37-16.15 483.52-16.15Q479.22-16.15 476.72-14.53 474.22-12.9 474.22-9.7L474.22-9.7Q474.22-6.55 476.94-4.7 479.67-2.85 484.97-2.85L484.97-2.85Q488.67-2.85 491.87-3.9 495.07-4.95 497.07-6.8L497.07-6.8ZM528.51-31.45L527.16-28.55Q522.01-31.55 515.76-32L515.76-32 515.76 0 512.06 0 512.06-32Q505.91-31.6 500.61-28.55L500.61-28.55 499.26-31.45Q505.76-35.3 513.86-35.3L513.86-35.3Q522.11-35.3 528.51-31.45L528.51-31.45ZM543.76 0.3Q539.86 0.3 536.28-0.95 532.71-2.2 530.76-4.25L530.76-4.25 532.21-7.1Q534.11-5.2 537.26-4.03 540.41-2.85 543.76-2.85L543.76-2.85Q548.46-2.85 550.81-4.58 553.16-6.3 553.16-9.05L553.16-9.05Q553.16-11.15 551.88-12.4 550.61-13.65 548.76-14.33 546.91-15 543.61-15.8L543.61-15.8Q539.66-16.8 537.31-17.73 534.96-18.65 533.28-20.55 531.61-22.45 531.61-25.7L531.61-25.7Q531.61-28.35 533.01-30.53 534.41-32.7 537.31-34 540.21-35.3 544.51-35.3L544.51-35.3Q547.51-35.3 550.38-34.48 553.26-33.65 555.36-32.2L555.36-32.2 554.11-29.25Q551.91-30.7 549.41-31.43 546.91-32.15 544.51-32.15L544.51-32.15Q539.91-32.15 537.58-30.38 535.26-28.6 535.26-25.8L535.26-25.8Q535.26-23.7 536.53-22.43 537.81-21.15 539.74-20.48 541.66-19.8 544.91-19L544.91-19Q548.76-18.05 551.13-17.13 553.51-16.2 555.16-14.33 556.81-12.45 556.81-9.25L556.81-9.25Q556.81-6.6 555.38-4.42 553.96-2.25 551.01-0.98 548.06 0.3 543.76 0.3L543.76 0.3Z" opacity="1" transform="matrix(1,0,0,1,0,0)" fill="#096a2e" class="slogan-text-1" data-fill-palette-color="secondary" id="text-1"></path></svg></g></svg></g></svg></g></svg></g><g><svg viewBox="0 0 124.5396771421354 124.5396771421354" height="124.5396771421354" width="124.5396771421354"><g><svg xmlns="http://www.w3.org/2000/svg" data-name="Layer 1" viewBox="10.539999961853027 10.539999961853027 18.919998168945312 18.919998168945312" x="0" y="0" height="124.5396771421354" width="124.5396771421354" class="icon-icon-0" data-fill-palette-color="accent" id="icon-0"><path d="M29.46 20l-2.9-2.72 0.13-4-4 0.13L20 10.54l-2.72 2.9-4-0.13 0.13 4L10.54 20l2.9 2.72-0.13 4 4-0.13L20 29.46l2.72-2.9 4 0.13-0.13-4Zm-4.84 4.62l-2.75-0.09-1.88 2-1.88-2-2.75 0.09 0.09-2.75-2-1.88 2-1.88-0.09-2.75 2.75 0.09 1.88-2 1.88 2 2.75-0.09-0.09 2.75 2 1.88-2 1.88Z" fill="#096a2e" data-fill-palette-color="accent"></path><circle cx="20" cy="20" r="3.0" fill="#096a2e" data-fill-palette-color="accent"></circle></svg></g></svg></g></svg></g><defs></defs></svg><rect width="395.52" height="92.24167447580388" fill="none" stroke="none" visibility="hidden"></rect></g></svg></g></svg>